<svg xmlns="http://www.w3.org/2000/svg" xmlns:xlink="http://www.w3.org/1999/xlink" viewBox="0 0 512 512"><defs><style>.cls-1{fill:none;}.cls-2{fill:#00f9ff;}.cls-3{fill:#f800ff;}.cls-4{clip-path:url(#clip-path);}</style><clipPath id="clip-path"><polygon class="cls-1" points="218.43 72 152.51 81 184.63 81 134.67 90 216.83 90 150.91 99 183.03 99 133.07 108 215.23 108 149.31 117 181.43 117 131.47 126 213.63 126 147.71 135 179.83 135 129.87 144 212.03 144 146.11 153 178.23 153 128.27 162 210.43 162 144.51 171 176.63 171 126.67 180 208.82 180 142.91 189 175.03 189 125.07 198 207.22 198 141.31 207 173.42 207 123.47 216 205.62 216 139.7 225 171.82 225 121.86 234 204.02 234 138.1 243 170.22 243 120.26 252 202.42 252 136.5 261 168.62 261 118.66 270 200.82 270 134.9 279 167.02 279 117.06 288 199.22 288 133.3 297 165.42 297 115.46 306 197.62 306 131.7 315 163.82 315 113.86 324 196.02 324 130.1 333 162.22 333 112.26 342 194.41 342 128.5 351 160.62 351 110.66 360 192.81 360 126.89 369 159.01 369 109.06 378 191.21 378 125.29 387 157.41 387 107.45 396 189.61 396 123.69 405 155.81 405 105.85 414 188.01 414 122.09 423 154.21 423 104.25 432 186.41 432 216.04 432 248.06 72 218.43 72"/></clipPath></defs><title>pea</title><g id="Layer_5" data-name="Layer 5"><polygon class="cls-2" points="275.31 72 188.06 81 272.41 81 157.04 90 269.5 90 182.25 99 266.6 99 151.23 108 263.69 108 176.44 117 260.79 117 145.42 126 257.88 126 170.63 135 254.98 135 139.61 144 252.07 144 164.82 153 249.16 153 133.8 162 246.26 162 159.01 171 243.35 171 127.99 180 240.45 180 153.2 189 237.54 189 122.18 198 234.64 198 147.39 207 231.73 207 116.36 216 228.83 216 141.57 225 225.92 225 110.55 234 223.02 234 135.76 243 220.11 243 104.74 252 217.21 252 129.95 261 214.3 261 98.93 270 211.39 270 124.14 279 208.49 279 93.12 288 205.58 288 118.33 297 202.68 297 87.31 306 199.77 306 112.52 315 196.87 315 81.5 324 193.96 324 106.71 333 191.06 333 75.69 342 188.15 342 100.9 351 185.25 351 69.88 360 182.34 360 95.09 369 179.43 369 64.07 378 176.53 378 89.28 387 173.62 387 58.26 396 170.72 396 83.47 405 167.81 405 52.45 414 164.91 414 77.66 423 162 423 46.63 432 159.1 432 181.59 432 285.81 72 275.31 72"/><polygon class="cls-3" points="251.37 443 250 324 235.14 74 147.45 83.08 234.55 83.08 117.83 92.15 233.96 92.15 146.28 101.22 233.37 101.22 116.65 110.3 232.78 110.3 145.09 119.38 232.19 119.38 115.47 128.45 231.6 128.45 143.92 137.53 231.02 137.53 114.29 146.6 230.43 146.6 142.74 155.68 229.84 155.68 113.11 164.75 229.25 164.75 141.56 173.82 228.66 173.82 111.94 182.9 228.07 182.9 140.38 191.97 227.48 191.97 110.75 201.05 226.89 201.05 139.2 210.13 226.3 210.13 109.58 219.2 225.71 219.2 138.02 228.28 225.12 228.28 108.4 237.35 224.53 237.35 136.84 246.43 223.94 246.43 107.22 255.5 223.35 255.5 135.66 264.57 222.76 264.57 106.04 273.65 222.17 273.65 134.48 282.73 221.58 282.73 104.86 291.8 220.99 291.8 133.3 300.88 220.4 300.88 103.68 309.95 219.81 309.95 132.12 319.02 219.22 319.02 102.5 328.1 218.63 328.1 130.94 337.18 218.04 337.18 101.32 346.25 217.45 346.25 129.76 355.32 216.86 355.32 100.14 364.4 216.27 364.4 128.59 373.48 215.69 373.48 98.96 382.55 215.09 382.55 127.41 391.63 214.51 391.63 97.78 400.7 213.92 400.7 126.23 409.77 213.33 409.77 96.6 418.85 212.74 418.85 125.05 427.93 212.15 427.93 95.42 437 251.37 443"/></g><g id="Layer_3" data-name="Layer 3"><g class="cls-4"><path d="M240.09,432l9.45-108H308c57.16,0,109.13-64.34,114.13-121.5h0C427.6,140.37,383.22,72,321.09,72H163.59l-31.5,360Zm15.75-180,9.45-108h18c19.88,0,33,34.12,31.27,54h0c-1.74,19.88-20.84,54-40.72,54Z"/></g></g><g id="Layer_1" data-name="Layer 1"><path d="M240.25,432l9.45-108h58.5c57.16,0,109.13-64.34,114.13-121.5h0C427.77,140.37,383.38,72,321.25,72H215.75l-31.5,360ZM256,252l9.45-108h18c19.88,0,33,34.12,31.27,54h0C313,217.88,293.88,252,274,252Z"/></g></svg>