<?xml version="1.0" encoding="utf-8"?>
<!-- Generator: Adobe Illustrator 23.0.2, SVG Export Plug-In . SVG Version: 6.00 Build 0)  -->
<svg version="1.1" id="Layer_1" xmlns="http://www.w3.org/2000/svg" xmlns:xlink="http://www.w3.org/1999/xlink" x="0px" y="0px"
	 viewBox="0 0 365 70" style="enable-background:new 0 0 365 70;" xml:space="preserve">
<style type="text/css">
	.st0{fill:#FFFFFF;}
	.st1{opacity:0.7;fill:#FFFFFF;enable-background:new    ;}
	.st2{opacity:0.5;fill:#FFFFFF;enable-background:new    ;}
	.st3{opacity:0.3;fill:#FFFFFF;enable-background:new    ;}
	.st4{opacity:0.2;fill:#FFFFFF;enable-background:new    ;}
</style>
<title>thinepeppos</title>
<g id="Layer_3">
	<rect x="51" y="46" class="st0" width="9" height="9"/>
	<rect x="51" y="34" class="st0" width="9" height="9"/>
	<rect x="51" y="22" class="st0" width="9" height="9"/>
	<rect x="51" y="10" class="st0" width="9" height="9"/>
	<rect x="39" y="46" class="st1" width="9" height="9"/>
	<rect x="39" y="34" class="st1" width="9" height="9"/>
	<rect x="39" y="22" class="st1" width="9" height="9"/>
	<rect x="39" y="10" class="st1" width="9" height="9"/>
	<rect x="27" y="46" class="st2" width="9" height="9"/>
	<rect x="27" y="34" class="st2" width="9" height="9"/>
	<rect x="27" y="22" class="st1" width="9" height="9"/>
	<rect x="15" y="46" class="st3" width="9" height="9"/>
	<rect x="15" y="34" class="st3" width="9" height="9"/>
	<rect x="3" y="46" class="st4" width="9" height="9"/>
</g>
<g>
	<path class="st0" d="M59.4,10h17.1v4.5h-12v15.8h11.2v4.3H64.5V55h-5.1V10z"/>
	<path class="st0" d="M100.4,46.2c0,3.6,0.2,6.4,0.3,8.8h-4.5l-0.3-3.4h-0.1c-1,1.6-3.4,3.9-6.9,3.9c-5.6,0-7.9-4.4-7.9-12.4V22.7
		H86v19.7c0,5.1,0.8,8.8,4.3,8.8c3,0,4.4-2.8,4.6-4.3c0.2-0.9,0.3-1.8,0.3-2.9V22.7h5.1V46.2z"/>
	<path class="st0" d="M107.5,31c0-2.7-0.2-5.9-0.3-8.3h4.6l0.3,5h0.2c1-3.1,3.8-5.6,6.8-5.6c0.5,0,0.8,0,1.1,0.1v5.3
		c-0.3,0-0.6,0-1.1,0c-3.3,0-5.7,3-6.2,6.7c-0.1,0.9-0.2,1.8-0.2,2.9V55h-5.1V31z"/>
	<path class="st0" d="M141.7,54.4c-0.9,0.4-3.1,1-5.6,1c-8.3,0-13.7-5.7-13.7-16.4c0-10.1,5.9-17.1,15-17.1c2.1,0,3.9,0.5,4.8,0.9
		l-1.1,6.9c-0.7-0.2-1.8-0.6-3.3-0.6c-4.2,0-6.7,4-6.7,9.7c0,5.9,2.5,9.6,6.6,9.6c1.3,0,2.3-0.2,3.3-0.7L141.7,54.4z"/>
	<path class="st0" d="M168.9,38.5c0,13.6-7.5,17-12.5,17c-7.8,0-12.5-6.2-12.5-16.8c0-11.7,6.2-17,12.7-17
		C164.3,21.8,168.9,28.3,168.9,38.5z M152.6,38.6c0,5.6,0.9,10.3,4,10.3c2.8,0,3.6-5.5,3.6-10.3c0-4.5-0.7-10.2-3.7-10.2
		C153.3,28.4,152.6,34.1,152.6,38.6z"/>
	<path class="st0" d="M173.8,32.1c0-3.2-0.1-6.8-0.3-9.8h7.6l0.4,4.8h0.2c1.4-3.5,4.1-5.3,6.5-5.3c0.9,0,1.3,0.1,1.9,0.2v8.7
		c-0.6-0.1-1.1-0.1-1.9-0.1c-1.8,0-4.3,1.3-5.3,4.6c-0.2,0.7-0.4,1.9-0.4,3.3V55h-8.8V32.1z"/>
	<path class="st0" d="M193.4,32.1c0-3.6-0.1-6.7-0.3-9.8h7.6l0.5,3.8h0.1c1.7-2.6,4.5-4.3,7.9-4.3c6.2,0,8.7,5,8.7,12.3v21h-8.8
		V34.5c0-2.8-0.6-5.4-3.2-5.4c-1.4,0-2.7,1-3.3,2.9c-0.2,0.7-0.5,1.8-0.5,3V55h-8.8V32.1z"/>
</g>
</svg>
