<svg xmlns="http://www.w3.org/2000/svg" viewBox="0 0 365 70"><defs><style>.cls-1,.cls-2,.cls-3,.cls-4,.cls-5{fill:#fff;}.cls-2{opacity:0.7;}.cls-3{opacity:0.5;}.cls-4{opacity:0.3;}.cls-5{opacity:0.2;}</style></defs><title>thinepeppos</title><g id="Layer_3" data-name="Layer 3"><rect class="cls-1" x="51" y="44" width="9" height="9"/><rect class="cls-1" x="51" y="32" width="9" height="9"/><rect class="cls-1" x="51" y="20" width="9" height="9"/><rect class="cls-1" x="51" y="8" width="9" height="9"/><rect class="cls-2" x="39" y="44" width="9" height="9"/><rect class="cls-2" x="39" y="32" width="9" height="9"/><rect class="cls-2" x="39" y="20" width="9" height="9"/><rect class="cls-2" x="39" y="8" width="9" height="9"/><rect class="cls-3" x="27" y="44" width="9" height="9"/><rect class="cls-3" x="27" y="32" width="9" height="9"/><rect class="cls-2" x="27" y="20" width="9" height="9"/><rect class="cls-4" x="15" y="44" width="9" height="9"/><rect class="cls-4" x="15" y="32" width="9" height="9"/><rect class="cls-5" x="3" y="44" width="9" height="9"/></g><g id="Layer_1" data-name="Layer 1"><path class="cls-1" d="M59.78,9.57H50.92v-5H74.18v5H65.32V53.13H59.78Z"/><path class="cls-1" d="M78.21,3.3h5.55V22h.14a9.62,9.62,0,0,1,2.88-3,8.38,8.38,0,0,1,4.68-1.29c4.39,0,8.14,3.52,8.14,12.31V53.13H94.05V30.67c0-4.25-.93-8.28-4.68-8.28-2.59,0-4.53,1.87-5.4,5.54a16.38,16.38,0,0,0-.21,2.66V53.13H78.21Z"/><path class="cls-1" d="M113.35,9.28a3.24,3.24,0,0,1-3.39,3.6c-1.8,0-3.16-1.44-3.16-3.6A3.32,3.32,0,0,1,110,5.68C112.05,5.68,113.35,7.12,113.35,9.28Zm-6,43.85V18.28h5.55V53.13Z"/><path class="cls-1" d="M120.62,27.28c0-4.1-.22-6.19-.29-9h4.83l.28,4.18h.15a8.84,8.84,0,0,1,8-4.75c4.82,0,8.43,3.6,8.43,12v23.4h-5.55V30.67c0-4.11-.79-8.28-4.82-8.28-2.31,0-4.54,1.94-5.26,5.68a20.13,20.13,0,0,0-.22,3.1v22h-5.54Z"/><path class="cls-1" d="M153.67,36.21c.07,10.66,4.25,13,8.28,13a11.65,11.65,0,0,0,5.76-1.37l.86,4.11a16.77,16.77,0,0,1-7.63,1.65c-8.35,0-12.67-6.84-12.67-17.49,0-11.31,4.75-18.36,11.73-18.36,7.13,0,9.94,7.48,9.94,15.41,0,1.29,0,2.23-.07,3.09Zm10.94-4.1c.15-7-2.52-10.08-5.18-10.08-3.6,0-5.48,5.32-5.69,10.08Z"/><path class="cls-1" d="M187.51,5.32a49,49,0,0,1,9.86-.94c5.62,0,10,.8,13.18,3.75,2.88,2.52,4.17,6.55,4.17,10.66,0,5.25-1.58,8.92-4.1,11.66-3,3.17-7.92,4.61-11.81,4.61h-1.87V53.13h-9.43Zm9.43,22a4.72,4.72,0,0,0,1.51.15c4.75,0,6.91-3.39,6.91-7.92,0-4.25-1.73-7.56-6.12-7.56a6.94,6.94,0,0,0-2.3.36Z"/><path class="cls-1" d="M225.88,38.88c.15,5.47,3.32,7.48,7.49,7.48a20.68,20.68,0,0,0,6.7-1.15L241.36,52a29.06,29.06,0,0,1-9.72,1.58c-9.57,0-14.83-6.33-14.83-17.35,0-11.81,6.12-18.86,14.11-18.86,7.56,0,12,6,12,16.63a25.53,25.53,0,0,1-.29,4.9Zm8.43-6.63c0-4.54-1.16-8.06-4-8.06-3.1,0-4.32,4.53-4.39,8.06Z"/><path class="cls-1" d="M248.13,29.08c0-4.25-.15-7.85-.29-11.16h8.21l.5,4h.15a8,8,0,0,1,7.34-4.6c7.78,0,10.95,8.35,10.95,18.14,0,12.53-5.55,18.22-11.45,18.22a6.83,6.83,0,0,1-5.83-3.46h-.15V67h-9.43Zm9.43,11.16a7.33,7.33,0,0,0,.5,3c.73,2.16,1.95,2.73,3,2.73,3.31,0,4.46-4.89,4.46-10.44,0-6.69-1.58-10.29-4.39-10.29a3.64,3.64,0,0,0-3.17,3,5.82,5.82,0,0,0-.43,2.52Z"/><path class="cls-1" d="M280.31,29.08c0-4.25-.14-7.85-.29-11.16h8.21l.51,4h.14a8,8,0,0,1,7.34-4.6c7.78,0,10.95,8.35,10.95,18.14,0,12.53-5.54,18.22-11.45,18.22a6.84,6.84,0,0,1-5.83-3.46h-.15V67h-9.43Zm9.43,11.16a7.16,7.16,0,0,0,.51,3c.72,2.16,1.94,2.73,3,2.73,3.32,0,4.47-4.89,4.47-10.44,0-6.69-1.59-10.29-4.39-10.29a3.63,3.63,0,0,0-3.17,3,5.83,5.83,0,0,0-.44,2.52Z"/><path class="cls-1" d="M338.27,35.42c0,14.69-8.13,18.29-13.46,18.29-8.43,0-13.47-6.63-13.47-18.08C311.34,23,318,17.35,325,17.35,333.23,17.35,338.27,24.33,338.27,35.42Zm-17.57,0c0,6,.94,11.09,4.32,11.09,3,0,3.82-5.91,3.82-11.09,0-4.83-.79-11-4-11C321.42,24.47,320.7,30.59,320.7,35.42Z"/><path class="cls-1" d="M343.31,44.64a13.24,13.24,0,0,0,6.34,1.87c2.45,0,3.81-1.08,3.81-3.17,0-1.8-1-3-4.1-4.75-5.76-3.24-7.13-6.92-7.13-10.16,0-6.33,4.54-11.08,11.59-11.08A16.6,16.6,0,0,1,361,18.93l-1.65,6.91a9.83,9.83,0,0,0-4.9-1.44c-2.38,0-3.53,1.44-3.53,3s.79,2.44,4.11,4.39c5.18,3,7.13,6.62,7.13,10.66,0,7.2-5.19,11.08-12.46,11.08-2.95,0-6.41-.79-8.07-2Z"/></g></svg>